<svg width="496" height="348" viewBox="0 0 496 348" fill="none" xmlns="http://www.w3.org/2000/svg">
<rect width="496" height="348" fill="#0E2547"/>
<path d="M166.746 99.4911L257.135 56.1258L341.742 99.4911L257.135 143.126L166.746 99.4911Z" fill="#ADADAD"/>
<path d="M166.746 206.991L257.135 163.626L341.742 206.991L257.135 250.626L166.746 206.991Z" fill="#ADADAD"/>
<path d="M266.738 149.56L358.738 101.561L352.738 188.061L264.238 235.56L266.738 149.56Z" fill="white"/>
<path d="M391.738 136.561L351.739 205.06L355.739 87.5606L391.738 136.561Z" fill="white"/>
<path d="M248.215 149.56L156.215 101.561L162.215 188.061L250.715 235.56L248.215 149.56Z" fill="#275FB2"/>
<path d="M123.215 136.561L163.215 205.06L159.214 87.5606L123.215 136.561Z" fill="#275FB2"/>
<path d="M222 73L307.5 117.5L294.499 124L210.499 78.5L222 73Z" fill="#545454"/>
<path d="M299.5 78L216.5 123.5L207 119L289.999 73L299.5 78Z" fill="#545454"/>
<path d="M201 125L210 129.5V142.5L201 138V125Z" fill="#545454"/>
<path d="M310 127L301 131.5V144.5L310 140V127Z" fill="#545454"/>
<path d="M162.592 299.149C161.557 299.149 160.621 298.972 159.785 298.617C158.963 298.263 158.311 297.753 157.829 297.086C157.347 296.42 157.099 295.633 157.084 294.726H160.274C160.316 295.336 160.529 295.818 160.912 296.172C161.309 296.526 161.847 296.704 162.528 296.704C163.222 296.704 163.768 296.541 164.165 296.215C164.562 295.874 164.76 295.435 164.76 294.896C164.76 294.457 164.626 294.095 164.356 293.812C164.087 293.528 163.747 293.309 163.336 293.153C162.939 292.983 162.386 292.798 161.677 292.6C160.713 292.316 159.927 292.04 159.317 291.771C158.722 291.487 158.204 291.069 157.765 290.516C157.34 289.949 157.127 289.198 157.127 288.262C157.127 287.383 157.347 286.618 157.786 285.966C158.226 285.314 158.842 284.817 159.636 284.477C160.43 284.123 161.337 283.946 162.358 283.946C163.889 283.946 165.129 284.321 166.079 285.073C167.043 285.81 167.574 286.845 167.673 288.177H164.399C164.371 287.667 164.151 287.249 163.74 286.923C163.343 286.582 162.811 286.412 162.145 286.412C161.564 286.412 161.096 286.561 160.742 286.859C160.401 287.156 160.231 287.589 160.231 288.156C160.231 288.553 160.359 288.886 160.614 289.155C160.883 289.41 161.209 289.623 161.592 289.793C161.989 289.949 162.542 290.133 163.251 290.346C164.215 290.629 165.001 290.913 165.611 291.196C166.22 291.48 166.745 291.905 167.184 292.472C167.624 293.039 167.844 293.783 167.844 294.705C167.844 295.499 167.638 296.236 167.227 296.916C166.816 297.597 166.213 298.142 165.42 298.553C164.626 298.95 163.683 299.149 162.592 299.149ZM185.591 284.158V286.561H181.636V299H178.659V286.561H174.704V284.158H185.591ZM199.719 299.149C198.33 299.149 197.054 298.823 195.892 298.171C194.729 297.519 193.808 296.619 193.127 295.47C192.447 294.308 192.107 292.997 192.107 291.537C192.107 290.091 192.447 288.794 193.127 287.645C193.808 286.483 194.729 285.576 195.892 284.924C197.054 284.272 198.33 283.946 199.719 283.946C201.122 283.946 202.398 284.272 203.546 284.924C204.709 285.576 205.623 286.483 206.289 287.645C206.97 288.794 207.31 290.091 207.31 291.537C207.31 292.997 206.97 294.308 206.289 295.47C205.623 296.619 204.709 297.519 203.546 298.171C202.384 298.823 201.108 299.149 199.719 299.149ZM199.719 296.491C200.612 296.491 201.399 296.292 202.079 295.896C202.76 295.484 203.291 294.903 203.674 294.152C204.057 293.401 204.248 292.529 204.248 291.537C204.248 290.544 204.057 289.68 203.674 288.943C203.291 288.191 202.76 287.617 202.079 287.22C201.399 286.823 200.612 286.625 199.719 286.625C198.826 286.625 198.032 286.823 197.337 287.22C196.657 287.617 196.125 288.191 195.743 288.943C195.36 289.68 195.169 290.544 195.169 291.537C195.169 292.529 195.36 293.401 195.743 294.152C196.125 294.903 196.657 295.484 197.337 295.896C198.032 296.292 198.826 296.491 199.719 296.491ZM213.868 291.558C213.868 290.098 214.194 288.794 214.846 287.645C215.513 286.483 216.413 285.583 217.547 284.945C218.695 284.293 219.978 283.967 221.395 283.967C223.054 283.967 224.507 284.392 225.754 285.243C227.002 286.093 227.874 287.27 228.37 288.772H224.946C224.606 288.064 224.124 287.532 223.5 287.178C222.891 286.823 222.182 286.646 221.374 286.646C220.509 286.646 219.737 286.852 219.056 287.263C218.39 287.66 217.866 288.227 217.483 288.964C217.114 289.701 216.93 290.566 216.93 291.558C216.93 292.536 217.114 293.401 217.483 294.152C217.866 294.889 218.39 295.463 219.056 295.874C219.737 296.271 220.509 296.47 221.374 296.47C222.182 296.47 222.891 296.292 223.5 295.938C224.124 295.57 224.606 295.031 224.946 294.322H228.37C227.874 295.839 227.002 297.023 225.754 297.873C224.521 298.709 223.068 299.128 221.395 299.128C219.978 299.128 218.695 298.809 217.547 298.171C216.413 297.519 215.513 296.619 214.846 295.47C214.194 294.322 213.868 293.018 213.868 291.558ZM244.357 299L238.956 292.387V299H235.979V284.158H238.956V290.814L244.357 284.158H247.95L241.826 291.515L248.12 299H244.357ZM263.565 291.388C264.401 291.544 265.089 291.962 265.628 292.642C266.166 293.323 266.436 294.102 266.436 294.981C266.436 295.775 266.237 296.477 265.84 297.086C265.457 297.682 264.897 298.149 264.16 298.49C263.423 298.83 262.551 299 261.545 299H255.145V284.158H261.269C262.275 284.158 263.14 284.321 263.863 284.647C264.6 284.973 265.153 285.427 265.521 286.008C265.904 286.589 266.095 287.249 266.095 287.986C266.095 288.85 265.861 289.573 265.394 290.155C264.94 290.736 264.33 291.147 263.565 291.388ZM258.122 290.282H260.843C261.552 290.282 262.098 290.126 262.481 289.814C262.863 289.488 263.055 289.028 263.055 288.432C263.055 287.837 262.863 287.376 262.481 287.05C262.098 286.724 261.552 286.561 260.843 286.561H258.122V290.282ZM261.12 296.576C261.843 296.576 262.403 296.406 262.8 296.066C263.211 295.725 263.416 295.244 263.416 294.62C263.416 293.982 263.204 293.486 262.778 293.131C262.353 292.763 261.779 292.579 261.056 292.579H258.122V296.576H261.12ZM281.529 299L278.255 293.216H276.851V299H273.875V284.158H279.446C280.594 284.158 281.572 284.364 282.38 284.775C283.188 285.172 283.79 285.718 284.187 286.412C284.598 287.093 284.804 287.858 284.804 288.709C284.804 289.687 284.52 290.573 283.953 291.367C283.386 292.146 282.543 292.685 281.423 292.983L284.974 299H281.529ZM276.851 290.984H279.339C280.147 290.984 280.75 290.792 281.147 290.41C281.544 290.013 281.742 289.467 281.742 288.772C281.742 288.092 281.544 287.568 281.147 287.199C280.75 286.816 280.147 286.625 279.339 286.625H276.851V290.984ZM295.54 284.158V299H292.563V284.158H295.54ZM308.736 284.158C310.295 284.158 311.663 284.463 312.84 285.073C314.03 285.682 314.945 286.554 315.583 287.688C316.235 288.808 316.561 290.112 316.561 291.6C316.561 293.089 316.235 294.393 315.583 295.513C314.945 296.619 314.03 297.476 312.84 298.086C311.663 298.695 310.295 299 308.736 299H303.548V284.158H308.736ZM308.629 296.47C310.189 296.47 311.394 296.044 312.244 295.194C313.095 294.343 313.52 293.146 313.52 291.6C313.52 290.055 313.095 288.85 312.244 287.986C311.394 287.107 310.189 286.667 308.629 286.667H306.524V296.47H308.629ZM334.189 288.624C333.849 288 333.381 287.525 332.786 287.199C332.191 286.873 331.496 286.71 330.702 286.71C329.823 286.71 329.044 286.908 328.363 287.305C327.683 287.702 327.151 288.269 326.769 289.006C326.386 289.743 326.194 290.594 326.194 291.558C326.194 292.55 326.386 293.415 326.769 294.152C327.165 294.889 327.711 295.456 328.406 295.853C329.1 296.25 329.908 296.448 330.83 296.448C331.964 296.448 332.892 296.151 333.615 295.555C334.338 294.946 334.813 294.102 335.04 293.025H329.937V290.75H337.974V293.344C337.776 294.379 337.351 295.336 336.698 296.215C336.046 297.093 335.203 297.802 334.168 298.341C333.148 298.865 331.999 299.128 330.724 299.128C329.292 299.128 327.995 298.809 326.832 298.171C325.684 297.519 324.777 296.619 324.111 295.47C323.459 294.322 323.133 293.018 323.133 291.558C323.133 290.098 323.459 288.794 324.111 287.645C324.777 286.483 325.684 285.583 326.832 284.945C327.995 284.293 329.285 283.967 330.702 283.967C332.375 283.967 333.828 284.378 335.061 285.2C336.294 286.008 337.145 287.149 337.613 288.624H334.189ZM348.22 286.561V290.282H353.217V292.642H348.22V296.576H353.855V299H345.243V284.137H353.855V286.561H348.22Z" fill="white"/>
</svg>
