<?xml version="1.0" encoding="utf-8"?>
<!-- Generator: Adobe Illustrator 27.5.0, SVG Export Plug-In . SVG Version: 6.00 Build 0)  -->
<svg version="1.1" xmlns="http://www.w3.org/2000/svg" xmlns:xlink="http://www.w3.org/1999/xlink" x="0px" y="0px"
	 viewBox="0 0 3710 3710" style="enable-background:new 0 0 3710 3710;" xml:space="preserve">
<g id="Background">
	<g>
		<g>
			<rect style="fill:#FFFFFF;" width="3710" height="3710"/>
		</g>
	</g>
</g>
<g id="Illustration">
	<g>
		
			<linearGradient id="SVGID_1_" gradientUnits="userSpaceOnUse" x1="3415.2432" y1="3574.1157" x2="1361.6621" y2="1357.5518" gradientTransform="matrix(0.9998 0.0175 -0.0175 0.9998 9.2261 5.1272)">
			<stop  offset="0" style="stop-color:#DAE3FE"/>
			<stop  offset="1" style="stop-color:#E9EFFD"/>
		</linearGradient>
		<path style="fill:url(#SVGID_1_);" d="M3097.235,2370.371c-293.646,654.493-1043.304,924.716-1625.95,866.225
			c-159.086-15.97-479.171-48.103-725.321-289.166C273.25,2484.485,363.882,1535.655,833.787,984.317
			c60.514-71.001,479.104-546.47,1118.14-528.839c467.867,12.909,791.697,282.988,831.059,316.618
			c49.726,42.483,159.276,143.286,256.823,301.871C3269.012,1446.586,3280.735,1961.378,3097.235,2370.371z"/>
		<g>
			<g>
				<path style="fill:#BDD0FB;" d="M3002.407,678.263c-6.733-14.186-28.055-9.908-28.726,5.781
					c-6.48,151.676-35.929,548.863-168.871,787.205c-216.46,388.075-288.538,952.569-38.614,1177.433
					C2766.197,2648.682,3735.991,2223.956,3002.407,678.263z"/>
				<path style="opacity:0.43;fill:#FFFFFF;" d="M3022.045,887.898c0.732,4.736,0.961,8.702,1.393,12.956l1.003,12.57l1.724,25.135
					c1.034,16.759,1.811,33.528,2.586,50.298c1.431,33.543,2.445,67.1,3.151,100.668c1.288,67.137,0.758,134.299-0.782,201.44
					c-1.446,67.149-4.77,134.257-9.514,201.267c-4.802,67.002-10.555,133.964-18.508,200.7
					c-15.641,133.478-38.557,266.232-70.76,396.834c-16.786,65.117-35.282,129.831-57.494,193.333
					c-22.659,63.319-48.024,125.707-77.822,185.965c-0.648,1.31-2.235,1.847-3.546,1.199c-1.278-0.632-1.82-2.157-1.246-3.448
					l0.016-0.033c27.336-61.147,51.338-123.651,72.222-187.2c21.064-63.5,38.416-128.167,54.06-193.187
					c15.612-65.049,28.601-130.715,40.101-196.628c11.475-65.934,20.216-132.309,28.581-198.715
					c16.168-132.921,25.229-266.652,30.615-400.5c2.55-66.938,3.749-133.934,3.761-200.935c0.059-33.501-0.19-67.005-0.854-100.503
					l-1.391-50.229l-0.952-25.096l-0.614-12.529c-0.267-4.1-0.486-8.513-0.868-12.091l-0.063-0.591
					c-0.154-1.441,0.889-2.734,2.33-2.888C3020.571,885.541,3021.83,886.525,3022.045,887.898z"/>
			</g>
			<g>
				<path style="fill:#91B3FA;" d="M2433.38,470.977c-10.044-11.173-28.431-1.432-24.766,13.138
					c35.436,140.862,116.782,513.137,59.888,767.975c-92.637,414.935-4.741,952.268,285.795,1090.3
					C2754.297,2342.389,3527.782,1688.331,2433.38,470.977z"/>
				<path style="opacity:0.43;fill:#FFFFFF;" d="M2508.618,657.842c1.969,4.152,3.259,7.722,4.818,11.506l4.351,11.254l8.445,22.578
					c5.525,15.086,10.815,30.252,16.104,45.418c10.469,30.368,20.561,60.865,30.372,91.454
					c19.508,61.215,37.349,122.951,54.263,184.942c17.003,61.972,32.266,124.421,46.198,187.168
					c13.877,62.755,26.872,125.734,37.788,189.106c22.073,126.677,37.264,254.678,43.353,383.238
					c2.361,64.298,3.044,128.693-0.011,192.99c-3.521,64.251-9.774,128.385-20.685,191.773c-0.242,1.404-1.575,2.345-2.979,2.104
					c-1.369-0.235-2.298-1.509-2.12-2.873l0.005-0.035c8.365-63.534,13.312-127.398,15.112-191.372
					c1.983-63.976,0.246-128.009-3.154-191.9c-3.436-63.909-9.439-127.668-16.877-191.247
					c-7.465-63.592-17.564-126.843-28.003-190.021c-21.425-126.302-49.602-251.408-81.157-375.624
					c-15.913-62.081-33.084-123.848-51.34-185.296c-9.078-30.739-18.44-61.399-28.181-91.937l-14.967-45.685l-7.713-22.757
					l-3.977-11.323c-1.362-3.686-2.767-7.677-4.088-10.845l-0.223-0.535c-0.543-1.303,0.072-2.8,1.376-3.343
					C2506.588,656.051,2508.036,656.62,2508.618,657.842z"/>
			</g>
		</g>
		<g>
			<g>
				<g style="opacity:0.3;">
					<path style="fill:#91B3FA;" d="M1258.43,1008.732c5.085,0.341,9.195,4.478,9.388,9.681c0.426,11.381,0.362,22.951-0.187,34.385
						c-0.267,5.563-4.992,9.857-10.554,9.59c-0.067-0.005-0.132-0.009-0.196-0.013c-5.466-0.367-9.656-5.046-9.392-10.542
						c0.523-10.864,0.582-21.853,0.179-32.664c-0.209-5.564,4.134-10.246,9.7-10.453
						C1257.725,1008.701,1258.08,1008.709,1258.43,1008.732z M1251.896,1096.327c0.393,0.026,0.79,0.076,1.188,0.15
						c5.473,1.023,9.083,6.29,8.06,11.764c-2.103,11.243-4.707,22.507-7.741,33.479c-1.484,5.368-7.013,8.505-12.405,7.034
						c-5.367-1.485-8.513-7.041-7.03-12.405c2.883-10.429,5.356-21.13,7.353-31.815
						C1242.269,1099.458,1246.868,1095.99,1251.896,1096.327z M1226.238,1180.305c1.12,0.075,2.247,0.341,3.336,0.812
						c5.107,2.218,7.454,8.155,5.238,13.263c-4.54,10.472-9.595,20.877-15.022,30.925c-2.65,4.899-8.766,6.718-13.663,4.08
						c-4.898-2.646-6.725-8.765-4.08-13.663c5.155-9.542,9.953-19.42,14.266-29.366
						C1218.055,1182.337,1222.104,1180.027,1226.238,1180.305z M1182.436,1256.452c1.851,0.124,3.689,0.761,5.293,1.942
						c4.484,3.301,5.441,9.614,2.14,14.097c-6.776,9.196-14.028,18.21-21.558,26.792c-3.673,4.178-10.041,4.595-14.229,0.927
						c-4.184-3.672-4.599-10.043-0.927-14.229c7.151-8.149,14.042-16.71,20.477-25.451
						C1175.754,1257.653,1179.114,1256.229,1182.436,1256.452z M1122.755,1320.919c2.596,0.174,5.122,1.347,6.955,3.471
						c3.641,4.215,3.173,10.583-1.042,14.22c-8.624,7.446-17.689,14.629-26.943,21.342c-4.505,3.274-10.811,2.274-14.082-2.236
						c-3.269-4.507-2.268-10.81,2.239-14.084c8.797-6.38,17.413-13.207,25.609-20.283
						C1117.582,1321.542,1120.201,1320.747,1122.755,1320.919z M1050.305,1370.574c3.362,0.226,6.534,2.128,8.234,5.321
						c2.616,4.917,0.754,11.02-4.161,13.639c-10.073,5.363-20.504,10.362-30.999,14.852c-5.123,2.19-11.046-0.185-13.236-5.306
						c-2.19-5.116,0.185-11.044,5.304-13.234c9.973-4.268,19.882-9.015,29.454-14.111
						C1046.624,1370.816,1048.491,1370.452,1050.305,1370.574z M680.063,1369.77c1.393,0.094,2.786,0.479,4.095,1.183
						c9.539,5.133,19.432,9.918,29.402,14.219c5.112,2.206,7.469,8.139,5.262,13.249c-2.204,5.114-8.138,7.471-13.251,5.264
						c-10.5-4.53-20.92-9.568-30.966-14.972c-4.905-2.639-6.74-8.754-4.102-13.657
						C672.435,1371.46,676.239,1369.513,680.063,1369.77z M968.704,1402.917c4.173,0.28,7.898,3.159,9.054,7.421
						c1.459,5.376-1.716,10.914-7.089,12.373c-11.015,2.99-22.294,5.537-33.524,7.57c-5.483,0.966-10.727-2.643-11.719-8.125
						c-0.992-5.479,2.647-10.725,8.127-11.719c10.665-1.929,21.375-4.348,31.835-7.186
						C966.5,1402.951,967.618,1402.845,968.704,1402.917z M761.611,1402.396c0.664,0.045,1.334,0.153,2,0.336
						c10.453,2.869,21.169,5.321,31.848,7.298c5.476,1.015,9.094,6.275,8.081,11.749c-1.015,5.474-6.273,9.119-11.749,8.081
						c-11.236-2.081-22.513-4.662-33.512-7.678c-5.37-1.474-8.531-7.023-7.057-12.391
						C752.511,1405.089,756.926,1402.082,761.611,1402.396z M881.925,1416.223c5.077,0.341,9.184,4.466,9.387,9.662
						c0.219,5.565-4.115,10.251-9.68,10.474c-11.392,0.447-22.958,0.408-34.373-0.122c-0.071-0.001-0.143-0.006-0.214-0.01
						c-5.458-0.367-9.645-5.033-9.392-10.523c0.257-5.564,4.973-9.866,10.537-9.607c10.844,0.499,21.828,0.535,32.653,0.109
						C881.206,1416.194,881.569,1416.199,881.925,1416.223z"/>
					<path style="fill:#91B3FA;" d="M621.004,1330.724c1.981,0.133,3.944,0.849,5.612,2.185c4.059,3.249,8.254,6.463,12.467,9.565
						c4.485,3.297,5.449,9.611,2.15,14.094c-3.297,4.488-9.613,5.457-14.096,2.148c-4.433-3.258-8.844-6.641-13.116-10.058
						c-4.347-3.478-5.054-9.825-1.577-14.17C614.588,1331.805,617.821,1330.51,621.004,1330.724z"/>
				</g>
				<g style="opacity:0.3;">
					<path style="fill:#91B3FA;" d="M475.003,1060.213c4.855,0.326,8.892,4.134,9.354,9.135c0.475,5.175,1.068,10.43,1.762,15.612
						c0.738,5.521-3.137,10.593-8.656,11.332c-5.543,0.741-10.593-3.139-11.332-8.656c-0.729-5.456-1.354-10.989-1.857-16.439
						c-0.51-5.545,3.572-10.453,9.116-10.965C473.936,1060.181,474.475,1060.177,475.003,1060.213z"/>
					<path style="fill:#91B3FA;" d="M891.929,632.076c4.629,0.311,9.27,0.702,13.922,1.172c5.54,0.562,9.578,5.506,9.018,11.046
						c-0.56,5.54-5.533,9.596-11.045,9.02c-10.737-1.084-21.493-1.732-32.093-1.922c-5.572-0.11-9.999-4.694-9.9-10.261
						c0.1-5.571,4.696-10.003,10.263-9.902C878.651,631.346,885.325,631.633,891.929,632.076z M958.323,642.207
						c0.562,0.038,1.13,0.124,1.698,0.26c10.937,2.633,21.884,5.76,32.535,9.294c5.284,1.752,8.148,7.459,6.396,12.741
						c-1.754,5.286-7.472,8.163-12.745,6.395c-10.117-3.356-20.516-6.324-30.909-8.83c-5.413-1.303-8.744-6.749-7.441-12.16
						C949.026,645.06,953.512,641.884,958.323,642.207z M819.106,633.955c4.743,0.319,8.739,3.97,9.325,8.86
						c0.661,5.532-3.286,10.548-8.815,11.211c-10.577,1.263-21.243,2.998-31.706,5.161c-5.456,1.118-10.788-2.383-11.914-7.835
						c-1.125-5.456,2.383-10.79,7.836-11.916c11.018-2.276,22.253-4.103,33.391-5.435
						C817.859,633.927,818.489,633.914,819.106,633.955z M1039.638,671.585c1.277,0.086,2.557,0.421,3.776,1.02
						c10.082,4.968,20.073,10.427,29.694,16.224c4.769,2.874,6.305,9.068,3.431,13.837c-2.875,4.773-9.067,6.311-13.839,3.432
						c-9.136-5.504-18.622-10.688-28.198-15.406c-4.996-2.459-7.049-8.506-4.588-13.5
						C1031.774,673.417,1035.683,671.319,1039.638,671.585z M734.996,653.649c3.89,0.261,7.443,2.781,8.831,6.692
						c1.862,5.248-0.884,11.013-6.132,12.875c-10.034,3.557-20.057,7.598-29.794,12.004c-5.073,2.296-11.048,0.047-13.344-5.029
						c-2.294-5.072-0.044-11.043,5.028-13.339c10.249-4.641,20.802-8.894,31.368-12.641
						C732.29,653.736,733.664,653.56,734.996,653.649z M657.242,691.323c3.11,0.209,6.081,1.853,7.868,4.693
						c2.964,4.715,1.545,10.939-3.17,13.903c-9.04,5.685-17.947,11.817-26.471,18.224c-4.447,3.353-10.766,2.458-14.118-1.998
						c-3.346-4.452-2.45-10.771,2-14.12c8.971-6.743,18.343-13.195,27.857-19.176C653.08,691.671,655.19,691.186,657.242,691.323z
						 M589.55,745.052c2.366,0.159,4.683,1.147,6.484,2.965c3.919,3.954,3.889,10.339-0.067,14.258
						c-7.595,7.523-14.953,15.444-21.873,23.553c-3.614,4.233-9.974,4.742-14.215,1.122c-4.234-3.616-4.738-9.978-1.122-14.215
						c7.283-8.53,15.028-16.872,23.018-24.787C583.914,745.83,586.764,744.865,589.55,745.052z M535.192,812.26
						c1.639,0.11,3.272,0.622,4.754,1.571c4.689,3.003,6.055,9.237,3.052,13.926c-5.763,8.996-11.204,18.337-16.176,27.769
						c-2.597,4.925-8.702,6.813-13.62,4.221c-4.927-2.596-6.815-8.696-4.219-13.621c5.236-9.935,10.967-19.774,17.033-29.243
						C528.073,813.673,531.641,812.022,535.192,812.26z M496.899,889.792c0.921,0.062,1.85,0.254,2.761,0.584
						c5.235,1.895,7.943,7.678,6.047,12.911c-3.627,10.02-6.875,20.325-9.652,30.638c-1.448,5.378-6.997,8.554-12.357,7.112
						c-5.377-1.447-8.562-6.982-7.114-12.359c2.924-10.856,6.342-21.707,10.163-32.254
						C488.312,892.101,492.529,889.499,496.899,889.792z M476.588,973.786c0.206,0.014,0.414,0.036,0.622,0.062
						c5.522,0.71,9.424,5.764,8.712,11.286c-1.003,7.796-1.777,15.713-2.303,23.542c-0.19,2.833-0.347,5.665-0.475,8.486
						c-0.253,5.564-4.968,9.87-10.53,9.615c-5.637-0.146-9.867-4.965-9.615-10.526c0.134-2.972,0.301-5.944,0.501-8.927
						c0.553-8.233,1.369-16.566,2.425-24.765C466.606,977.244,471.313,973.431,476.588,973.786z"/>
					<path style="fill:#91B3FA;" d="M1112.67,718.304c2,0.134,3.978,0.863,5.654,2.215c4.246,3.431,8.499,7.017,12.642,10.658
						c4.184,3.676,4.595,10.047,0.92,14.229c-3.677,4.182-10.043,4.599-14.229,0.919c-3.936-3.458-7.976-6.864-12.007-10.122
						c-4.33-3.496-5.005-9.845-1.505-14.177C1106.291,719.371,1109.507,718.091,1112.67,718.304z"/>
				</g>
				<g>
					<path style="fill:#91B3FA;" d="M1091.26,834.076c-1.164-1.639-3.24-2.36-5.169-1.794l-55.035,16.144
						c-20.078-17.728-43.127-32.383-68.536-43.069l-9.361-56.548c-0.328-1.984-1.879-3.54-3.861-3.876l-67.827-11.505
						c-1.983-0.336-3.96,0.623-4.923,2.386l-27.483,50.299c-27.512,1.711-54.104,7.945-78.904,18.063l-46.635-33.388
						c-1.635-1.17-3.831-1.174-5.471-0.011l-56.096,39.827c-1.64,1.165-2.36,3.24-1.794,5.169l16.144,55.035
						c-17.728,20.078-32.383,43.128-43.069,68.536l-56.549,9.362c-1.983,0.328-3.54,1.878-3.876,3.861l-11.504,67.828
						c-0.336,1.982,0.622,3.959,2.387,4.923l50.299,27.483c1.71,27.512,7.944,54.104,18.062,78.904l-33.389,46.636
						c-1.169,1.634-1.174,3.831-0.01,5.47l39.827,56.095c1.164,1.64,3.24,2.36,5.169,1.794l55.035-16.145
						c20.077,17.729,43.127,32.384,68.536,43.069l9.361,56.549c0.328,1.983,1.878,3.54,3.861,3.877l67.828,11.503
						c1.982,0.337,3.959-0.622,4.923-2.386l27.483-50.299c27.512-1.709,54.104-7.945,78.905-18.062l46.634,33.388
						c1.634,1.171,3.833,1.175,5.471,0.011l56.095-39.827c1.639-1.164,2.359-3.24,1.794-5.169l-16.144-55.035
						c17.729-20.078,32.383-43.128,43.069-68.536l56.549-9.361c1.982-0.328,3.54-1.879,3.875-3.861l11.504-67.827
						c0.336-1.982-0.622-3.959-2.386-4.924l-50.299-27.483c-1.711-27.511-7.945-54.103-18.062-78.904l33.388-46.635
						c1.171-1.635,1.175-3.831,0.011-5.471L1091.26,834.076z"/>
					<g>
						<path style="fill:#BDD0FB;" d="M869.552,967.992c33.634,2.259,61.508,28.94,64.256,63.521
							c3.019,38.014-25.448,71.392-63.459,74.413c-18.416,1.467-36.297-4.332-50.348-16.317
							c-14.055-11.984-22.602-28.727-24.063-47.141c-3.019-38.014,25.448-71.392,63.459-74.413
							C862.824,967.785,866.218,967.768,869.552,967.992z M861.208,1089.894c2.597,0.174,5.221,0.161,7.864-0.048
							c29.143-2.314,50.969-27.911,48.656-57.052c-2.316-29.144-27.902-50.983-57.054-48.657
							c-29.143,2.314-50.969,27.911-48.656,57.052c1.122,14.12,7.673,26.955,18.45,36.146
							C839.227,1084.802,849.928,1089.137,861.208,1089.894z"/>
					</g>
					<path style="fill:#BDD0FB;" d="M874.833,868.242c5.776,0.388,11.567,1.069,17.353,2.049l0,0
						c1.821,0.308,3.638,0.647,5.448,1.013c8.928,1.811,17.697,4.33,26.173,7.517c0.116,0.043,0.231,0.087,0.347,0.13
						c0.327,0.125,0.654,0.249,0.981,0.378c0.637,0.244,1.271,0.496,1.904,0.747c1.664,0.664,2.641,2.313,2.529,4.011
						c-0.028,0.412-0.121,0.829-0.282,1.232c-0.826,2.068-3.174,3.067-5.241,2.245c-10.642-4.255-21.814-7.39-33.207-9.319
						c-56.585-9.607-111.403,11.533-147.323,51.231c-19.982,22.078-34.115,49.901-39.451,81.374
						c-0.937,5.519-1.589,11.045-1.957,16.554c-2.486,37.08,7.771,73.583,29.576,104.293
						c25.045,35.278,62.331,58.691,104.983,65.925c88.093,14.932,171.841-44.556,186.774-132.605
						c0.921-5.429,1.564-10.885,1.928-16.343c1.584-23.653-2.024-47.39-10.651-69.494c-0.222-0.571-0.307-1.161-0.267-1.735
						c0.101-1.509,1.053-2.901,2.557-3.487c2.079-0.804,4.415,0.21,5.224,2.293c9.056,23.207,12.847,48.128,11.184,72.96
						c-0.383,5.729-1.057,11.455-2.022,17.153c-15.678,92.444-103.665,154.884-196.076,139.212
						c-44.78-7.594-83.919-32.174-110.212-69.209c-22.893-32.24-33.659-70.561-31.051-109.489
						c0.388-5.784,1.072-11.584,2.053-17.376c7.596-44.782,32.174-83.923,69.207-110.216
						C797.566,876.392,835.899,865.628,874.833,868.242z"/>
				</g>
			</g>
			<g>
				<g style="opacity:0.3;">
					<path style="fill:#91B3FA;" d="M1619.531,766.678c2.688,0.181,5.046,2.1,5.659,4.866c1.146,5.161,2.152,10.427,2.987,15.652
						c0.543,3.395-1.768,6.586-5.166,7.132c-3.399,0.558-6.589-1.771-7.132-5.166c-0.796-4.979-1.754-9.998-2.847-14.923
						c-0.747-3.354,1.372-6.679,4.729-7.429C1618.357,766.679,1618.951,766.639,1619.531,766.678z"/>
					<path style="fill:#91B3FA;" d="M1625.577,814.199c3.149,0.211,5.689,2.777,5.799,5.997c0.316,9.097,0.166,18.315-0.443,27.392
						c-0.128,1.911-0.279,3.827-0.447,5.748c-0.306,3.429-3.502,5.817-6.752,5.66c-3.426-0.303-5.957-3.326-5.657-6.749
						c0.163-1.836,0.307-3.667,0.43-5.493c0.582-8.659,0.724-17.45,0.426-26.125c-0.12-3.44,2.57-6.319,6.006-6.442
						C1625.154,814.183,1625.367,814.185,1625.577,814.199z M1619.88,878.607c0.294,0.02,0.594,0.058,0.888,0.12
						c3.365,0.72,5.511,4.028,4.794,7.392c-2.298,10.793-5.287,21.539-8.883,31.934c-1.123,3.252-4.685,4.964-7.92,3.85
						c-3.252-1.127-4.974-4.667-3.85-7.92c3.43-9.918,6.28-20.168,8.473-30.461C1614.036,880.458,1616.84,878.403,1619.88,878.607z
						 M1598.735,939.711c0.789,0.053,1.579,0.259,2.332,0.626c3.086,1.518,4.353,5.254,2.835,8.34
						c-4.869,9.883-10.408,19.574-16.47,28.79c-1.891,2.878-5.742,3.674-8.625,1.78c-2.872-1.887-3.67-5.751-1.783-8.622
						c5.78-8.791,11.063-18.024,15.704-27.452C1593.877,940.841,1596.292,939.546,1598.735,939.711z M1563.213,993.748
						c1.287,0.086,2.555,0.574,3.613,1.468c2.618,2.23,2.936,6.164,0.706,8.782c-7.157,8.406-14.894,16.438-23.006,23.877
						c-2.536,2.323-6.477,2.143-8.797-0.384c-2.326-2.533-2.156-6.471,0.381-8.8c7.732-7.088,15.116-14.753,21.938-22.767
						C1559.378,994.361,1561.311,993.62,1563.213,993.748z M1515.573,1037.469c1.796,0.121,3.528,1.017,4.656,2.598
						c1.997,2.797,1.345,6.685-1.452,8.685c-8.975,6.401-18.429,12.312-28.101,17.562c-3.024,1.65-6.804,0.524-8.445-2.499
						c-1.641-3.024-0.521-6.806,2.499-8.444c9.229-5.012,18.248-10.648,26.81-16.76
						C1512.76,1037.743,1514.186,1037.375,1515.573,1037.469z M1458.772,1068.298c2.327,0.156,4.471,1.623,5.383,3.94
						c1.257,3.199-0.321,6.811-3.52,8.071c-10.26,4.029-20.871,7.455-31.531,10.177c-3.344,0.842-6.724-1.165-7.576-4.495
						c-0.852-3.33,1.162-6.724,4.492-7.573c10.167-2.596,20.279-5.861,30.06-9.702
						C1456.966,1068.366,1457.882,1068.239,1458.772,1068.298z M1396.173,1084.3c2.912,0.196,5.374,2.427,5.755,5.427
						c0.432,3.412-1.983,6.529-5.395,6.964c-10.9,1.383-22.029,2.098-33.081,2.131c-3.446-0.049-6.238-2.778-6.244-6.216
						c-0.01-3.438,2.771-6.233,6.209-6.245c10.543-0.023,21.158-0.707,31.55-2.026
						C1395.376,1084.283,1395.779,1084.274,1396.173,1084.3z M1299.652,1078.61c0.358,0.024,0.723,0.079,1.086,0.17
						c8.813,2.183,17.9,3.921,27.011,5.166c1.379,0.196,2.735,0.373,4.09,0.531c3.416,0.412,5.854,3.508,5.444,6.923
						c-0.404,3.423-3.536,5.955-6.921,5.448c-1.445-0.176-2.886-0.359-4.332-0.565c-9.519-1.304-19.045-3.126-28.286-5.417
						c-3.34-0.828-5.374-4.201-4.547-7.54C1293.934,1080.354,1296.694,1078.412,1299.652,1078.61z"/>
				</g>
				<g style="opacity:0.3;">
					<path style="fill:#91B3FA;" d="M1376.919,561.236c3.392,0.228,5.981,3.145,5.798,6.552c-0.185,3.432-3.12,6.069-6.554,5.88
						c-10.339-0.56-20.8-0.494-31.092,0.198c-3.412,0.198-6.403-2.362-6.632-5.797c-0.23-3.435,2.368-6.399,5.797-6.632
						c10.794-0.719,21.761-0.794,32.598-0.206C1376.834,561.231,1376.892,561.234,1376.919,561.236z M1408.57,564.867
						c0.225,0.015,0.445,0.042,0.671,0.082c10.678,1.875,21.35,4.42,31.72,7.561c3.291,1.001,5.151,4.472,4.153,7.763
						c-0.995,3.298-4.49,5.142-7.764,4.16c-9.895-2.999-20.079-5.426-30.268-7.219c-3.386-0.593-5.649-3.823-5.054-7.209
						C1402.587,566.836,1405.439,564.657,1408.57,564.867z M1313.477,565.509c2.755,0.185,5.149,2.199,5.696,5.039
						c0.649,3.371-1.561,6.636-4.939,7.287c-10.173,1.962-20.31,4.554-30.134,7.717c-3.285,1.041-6.782-0.748-7.833-4.025
						c-1.054-3.271,0.748-6.782,4.021-7.836c10.298-3.313,20.927-6.031,31.591-8.082
						C1312.42,565.505,1312.955,565.474,1313.477,565.509z M1469.448,583.352c0.706,0.047,1.417,0.217,2.104,0.519
						c9.92,4.391,19.669,9.44,28.971,15.008c2.953,1.765,3.913,5.59,2.148,8.543c-1.764,2.941-5.589,3.903-8.54,2.145
						c-8.871-5.307-18.164-10.118-27.622-14.307c-3.143-1.393-4.566-5.073-3.172-8.216
						C1464.425,584.587,1466.911,583.182,1469.448,583.352z M1252.955,584.99c2.199,0.148,4.254,1.462,5.241,3.601
						c1.445,3.126,0.081,6.825-3.039,8.268c-9.382,4.331-18.595,9.284-27.387,14.727c-2.929,1.815-6.765,0.905-8.574-2.021
						c-1.809-2.925-0.905-6.765,2.02-8.574c9.221-5.701,18.88-10.898,28.715-15.443
						C1250.912,585.096,1251.951,584.923,1252.955,584.99z M1198.871,618.422c1.684,0.113,3.313,0.905,4.449,2.323
						c2.148,2.686,1.714,6.606-0.972,8.754c-8.09,6.473-15.857,13.491-23.084,20.856c-2.411,2.459-6.357,2.493-8.807,0.085
						c-2.456-2.408-2.493-6.348-0.085-8.801c7.577-7.726,15.718-15.084,24.194-21.866
						C1195.831,618.761,1197.373,618.321,1198.871,618.422z M1154.349,663.852c1.183,0.079,2.356,0.493,3.367,1.274
						c2.731,2.091,3.245,6.003,1.151,8.732c-6.309,8.213-12.163,16.89-17.402,25.784c-1.746,2.955-5.565,3.948-8.526,2.201
						c-2.964-1.747-3.951-5.562-2.203-8.528c5.496-9.323,11.635-18.425,18.248-27.044
						C1150.304,664.555,1152.341,663.717,1154.349,663.852z"/>
					<path style="fill:#91B3FA;" d="M1524.281,616.175c1.199,0.081,2.386,0.508,3.405,1.302c4.205,3.275,8.33,6.691,12.267,10.149
						c2.581,2.271,2.838,6.207,0.568,8.791c-2.273,2.572-6.203,2.832-8.791,0.567c-3.752-3.3-7.69-6.557-11.701-9.685
						c-2.713-2.114-3.197-6.029-1.083-8.74C1520.267,616.869,1522.288,616.041,1524.281,616.175z"/>
				</g>
				<g>
					<path style="fill:#91B3FA;" d="M1513.725,696.095c-0.778-1.096-2.168-1.579-3.458-1.2l-36.828,10.803
						c-13.435-11.863-28.859-21.669-45.861-28.82l-6.264-37.839c-0.219-1.327-1.257-2.369-2.583-2.594l-45.387-7.698
						c-1.327-0.224-2.649,0.417-3.295,1.597l-18.39,33.658c-18.41,1.145-36.204,5.316-52.799,12.086l-31.206-22.342
						c-1.094-0.782-2.564-0.786-3.661-0.007l-37.536,26.65c-1.097,0.779-1.579,2.168-1.2,3.459l10.803,36.827
						c-11.863,13.435-21.67,28.859-28.82,45.862l-37.84,6.264c-1.327,0.22-2.369,1.257-2.594,2.583l-7.698,45.388
						c-0.225,1.327,0.416,2.65,1.597,3.294l33.658,18.391c1.144,18.41,5.316,36.204,12.086,52.799l-22.342,31.207
						c-0.782,1.093-0.786,2.564-0.007,3.66l26.651,37.537c0.778,1.097,2.168,1.579,3.458,1.2l36.828-10.803
						c13.434,11.864,28.859,21.669,45.861,28.82l6.264,37.84c0.22,1.327,1.257,2.369,2.583,2.594l45.388,7.698
						c1.326,0.225,2.649-0.416,3.294-1.597l18.39-33.658c18.41-1.144,36.204-5.316,52.8-12.086l31.205,22.341
						c1.094,0.784,2.565,0.786,3.661,0.007l37.536-26.65c1.096-0.779,1.579-2.168,1.2-3.459l-10.802-36.827
						c11.863-13.435,21.669-28.859,28.819-45.862l37.84-6.264c1.326-0.219,2.369-1.257,2.593-2.584l7.698-45.386
						c0.225-1.327-0.416-2.649-1.597-3.295l-33.658-18.391c-1.145-18.409-5.316-36.203-12.086-52.799l22.341-31.206
						c0.783-1.094,0.786-2.564,0.008-3.661L1513.725,696.095z"/>
					<g>
						<path style="fill:#BDD0FB;" d="M1365.494,784.878c10.023,0.673,19.529,4.523,27.312,11.159
							c9.573,8.164,15.393,19.569,16.388,32.113c2.059,25.884-17.329,48.621-43.223,50.685c-25.93,2.014-48.633-17.34-50.688-43.229
							c-0.998-12.544,2.95-24.725,11.114-34.295c8.164-9.576,19.569-15.398,32.115-16.391
							C1360.855,784.737,1363.19,784.724,1365.494,784.878z M1359.896,866.451c1.672,0.112,3.37,0.104,5.089-0.03
							c19.045-1.518,33.306-18.242,31.794-37.288c-0.734-9.222-5.013-17.616-12.055-23.617c-7.045-6.007-16.003-8.901-25.23-8.18
							l0,0c-9.225,0.734-17.617,5.016-23.621,12.055c-6.007,7.045-8.91,16.004-8.177,25.233
							C1329.072,851.947,1343.043,865.319,1359.896,866.451z"/>
					</g>
					<path style="fill:#BDD0FB;" d="M1369.26,715.452c3.932,0.264,7.881,0.731,11.846,1.399c7.874,1.333,15.62,3.469,23.042,6.356
						c0.333,0.132,0.665,0.264,0.998,0.397c2.571,1.026,4.079,3.571,3.906,6.193c-0.043,0.637-0.186,1.279-0.435,1.902
						c-1.276,3.194-4.901,4.73-8.093,3.467c-6.903-2.762-14.136-4.789-21.495-6.033l-0.003,0c-0.403-0.07-0.811-0.133-1.212-0.197
						c-17.443-2.787-34.919-1.12-51.143,4.617c-8.806,3.115-17.246,7.436-25.107,12.912c-0.064,0.044-0.128,0.089-0.192,0.133
						c-0.195,0.14-0.39,0.273-0.583,0.412c-22.836,16.216-37.994,40.352-42.677,67.965c-0.609,3.574-1.029,7.148-1.268,10.716
						c-1.609,24.004,5.033,47.636,19.148,67.521c16.216,22.836,40.353,37.989,67.963,42.671
						c27.596,4.669,55.397-1.668,78.237-17.877c22.836-16.215,37.994-40.352,42.677-67.965c0.599-3.513,1.012-7.045,1.25-10.576
						c1.025-15.316-1.31-30.679-6.895-44.988c-0.343-0.883-0.474-1.793-0.412-2.679c0.156-2.33,1.627-4.481,3.949-5.385
						c3.207-1.241,6.814,0.33,8.067,3.541c6.248,16.011,8.863,33.204,7.719,50.333c-0.266,3.956-0.729,7.905-1.395,11.835
						c-5.241,30.897-22.198,57.9-47.751,76.041c-25.549,18.136-56.62,25.266-87.525,20.002
						c-30.895-5.238-57.897-22.192-76.036-47.747c-15.795-22.241-23.223-48.681-21.423-75.537c0.268-3.987,0.738-7.99,1.415-11.985
						C1255.979,753.083,1309.984,711.471,1369.26,715.452z"/>
				</g>
			</g>
		</g>
		<g>
			<g>
				
					<linearGradient id="SVGID_00000010269154188316642690000008977714023959529601_" gradientUnits="userSpaceOnUse" x1="-6106.0713" y1="423.1223" x2="-2193.5215" y2="3152.8088" gradientTransform="matrix(-1 0 0 1 -644.2802 0)">
					<stop  offset="0" style="stop-color:#FF928E"/>
					<stop  offset="1" style="stop-color:#FE7062"/>
				</linearGradient>
				<path style="fill:url(#SVGID_00000010269154188316642690000008977714023959529601_);" d="M3252.35,3041.527v-837.293
					c0-110.008-88.407-199.519-198.409-200.717c-330.141-3.595-1011.041-3.774-1568.164,43.174
					c-76.024,6.406-135.16,68.717-137.916,144.962l-52.07,809.494c-3.87,107.073,80.783,196.526,187.907,198.561l1576.897,29.966
					C3165.904,3231.674,3252.35,3146.854,3252.35,3041.527z"/>
				<path style="fill:#FFFFFF;" d="M3061.135,2294.825c1.403,71.244-0.712,184.285-2.444,257.319
					c-0.9,37.996-34.259,66.952-72.008,62.527l-271.695-31.843c-36.195-4.243-61.694-37.601-56.293-73.642l33.349-222.476
					c4.735-31.584,31.867-54.951,63.803-54.951h240.784C3031.716,2231.76,3060.444,2259.746,3061.135,2294.825z"/>
				<path style="opacity:0.37;fill:#FFFFFF;" d="M2351.105,2716.449l-226.643,24.449c-31.714,3.425-58.775-22.731-56.438-54.544
					l49.548-674.195c95.009-3.013,188.721-5.209,279.147-6.753v660.239C2396.719,2691.745,2377.054,2713.648,2351.105,2716.449z"/>
				<path style="fill:#FFFFFF;" d="M2258.212,2599.596c-0.698,12.127-10.745,21.478-22.738,21.478c-0.447,0-0.892-0.016-1.337-0.045
					c-12.571-0.727-22.174-11.503-21.432-24.074l34.174-588.414c15.325-0.379,30.524-0.72,45.721-1.058L2258.212,2599.596z"/>
				<g>
					
						<linearGradient id="SVGID_00000029760083636700182860000011651783641600761505_" gradientUnits="userSpaceOnUse" x1="-3493.7666" y1="2273.4304" x2="-3980.1167" y2="2980.157" gradientTransform="matrix(-1 0 0 1 -644.2802 0)">
						<stop  offset="0" style="stop-color:#09005D"/>
						<stop  offset="1" style="stop-color:#1A0F91"/>
					</linearGradient>
					<path style="fill:url(#SVGID_00000029760083636700182860000011651783641600761505_);" d="M2935.485,2507.205
						c3.978,0,7.332-3.087,7.585-7.125l11.754-185.333c0.267-4.186-2.909-7.793-7.109-8.06c-4.408-0.342-7.792,2.924-8.06,7.111
						l-11.754,185.334c-0.267,4.185,2.909,7.791,7.109,8.058C2935.174,2507.205,2935.337,2507.205,2935.485,2507.205z"/>
					
						<linearGradient id="SVGID_00000070083089462309973200000015234978671872390296_" gradientUnits="userSpaceOnUse" x1="-3476.2788" y1="2285.4658" x2="-3962.6289" y2="2992.1921" gradientTransform="matrix(-1 0 0 1 -644.2802 0)">
						<stop  offset="0" style="stop-color:#09005D"/>
						<stop  offset="1" style="stop-color:#1A0F91"/>
					</linearGradient>
					<path style="fill:url(#SVGID_00000070083089462309973200000015234978671872390296_);" d="M2911.293,2507.205
						c4.081,0,7.466-3.235,7.6-7.347l6.159-188.88c0.133-4.202-3.162-7.718-7.346-7.853c-4.841-0.237-7.704,3.162-7.852,7.347
						l-6.16,188.881c-0.134,4.2,3.162,7.718,7.347,7.852C2911.041,2507.205,2911.217,2507.205,2911.293,2507.205z"/>
					
						<linearGradient id="SVGID_00000145772595422624619760000012761984459395568527_" gradientUnits="userSpaceOnUse" x1="-3455.1787" y1="2299.9861" x2="-3941.5288" y2="3006.7126" gradientTransform="matrix(-1 0 0 1 -644.2802 0)">
						<stop  offset="0" style="stop-color:#09005D"/>
						<stop  offset="1" style="stop-color:#1A0F91"/>
					</linearGradient>
					<path style="fill:url(#SVGID_00000145772595422624619760000012761984459395568527_);" d="M2878.491,2507.189
						c-4.2-0.193-7.435-3.755-7.228-7.939c3.013-63.451,8.757-184.474,8.845-188.6c0.03-4.157,3.429-7.526,7.6-7.526
						c4.2,0,7.6,3.399,7.6,7.6c0,3.131-7.392,158.188-8.875,189.238c-0.193,4.082-3.548,7.243-7.585,7.243
						C2878.729,2507.205,2878.61,2507.205,2878.491,2507.189z M2879.96,2310.724h0.148H2879.96z"/>
					
						<linearGradient id="SVGID_00000043458055519481207550000018423064684816983979_" gradientUnits="userSpaceOnUse" x1="-3418.6816" y1="2325.1025" x2="-3905.0308" y2="3031.8274" gradientTransform="matrix(-1 0 0 1 -644.2802 0)">
						<stop  offset="0" style="stop-color:#09005D"/>
						<stop  offset="1" style="stop-color:#1A0F91"/>
					</linearGradient>
					<path style="fill:url(#SVGID_00000043458055519481207550000018423064684816983979_);" d="M2828.191,2514.804
						c8.15,0,14.888-6.457,15.169-14.663c6.427-183.004,5.298-187.131,4.556-189.862c-2.197-8.118-10.627-12.881-18.657-10.671
						c-7.437,2.033-12.082,9.248-11.072,16.682c0.489,10.998-2.909,117.476-5.195,182.782c-0.297,8.385,6.264,15.436,14.649,15.718
						C2827.821,2514.804,2828.013,2514.804,2828.191,2514.804z"/>
					
						<linearGradient id="SVGID_00000099649811504234689280000018129538761273552558_" gradientUnits="userSpaceOnUse" x1="-3394.6162" y1="2341.6636" x2="-3880.9661" y2="3048.3896" gradientTransform="matrix(-1 0 0 1 -644.2802 0)">
						<stop  offset="0" style="stop-color:#09005D"/>
						<stop  offset="1" style="stop-color:#1A0F91"/>
					</linearGradient>
					<path style="fill:url(#SVGID_00000099649811504234689280000018129538761273552558_);" d="M2795.256,2507.205
						c4.202,0,7.6-3.398,7.6-7.6v-185.333c0-4.202-3.398-7.6-7.6-7.6c-4.2,0-7.597,3.398-7.597,7.6v185.333
						C2787.658,2503.807,2791.055,2507.205,2795.256,2507.205z"/>
					
						<linearGradient id="SVGID_00000100359971119894732770000000625568946364048043_" gradientUnits="userSpaceOnUse" x1="-3379.6765" y1="2351.9456" x2="-3866.0232" y2="3058.6672" gradientTransform="matrix(-1 0 0 1 -644.2802 0)">
						<stop  offset="0" style="stop-color:#09005D"/>
						<stop  offset="1" style="stop-color:#1A0F91"/>
					</linearGradient>
					<path style="fill:url(#SVGID_00000100359971119894732770000000625568946364048043_);" d="M2768.659,2507.205
						c4.125,0,7.51-3.296,7.599-7.422c1.456-64.398,4.854-169.586,7.897-182.231c1.335-2.39,1.32-5.418-0.281-7.881
						c-2.301-3.532-7.007-4.482-10.523-2.182c-4.141,2.715-8.074,5.284-12.289,191.938c-0.088,4.2,3.234,7.674,7.421,7.778H2768.659
						z"/>
					
						<linearGradient id="SVGID_00000143609612433355794700000008592341895724908476_" gradientUnits="userSpaceOnUse" x1="-3518.7913" y1="2256.2109" x2="-4005.1389" y2="2962.9341" gradientTransform="matrix(-1 0 0 1 -644.2802 0)">
						<stop  offset="0" style="stop-color:#09005D"/>
						<stop  offset="1" style="stop-color:#1A0F91"/>
					</linearGradient>
					<path style="fill:url(#SVGID_00000143609612433355794700000008592341895724908476_);" d="M2976.375,2524.08
						c8.03,0,14.739-6.292,15.169-14.412l10.137-194.611c0.431-8.385-6.011-15.525-14.396-15.97
						c-7.955-0.563-15.525,6.012-15.97,14.397l-10.137,194.611c-0.431,8.386,6.01,15.524,14.395,15.969
						C2975.841,2524.08,2976.108,2524.08,2976.375,2524.08z"/>
				</g>
			</g>
			<g>
				
					<linearGradient id="SVGID_00000158002114786913404400000003964010409724158907_" gradientUnits="userSpaceOnUse" x1="-3913.7039" y1="850.7625" x2="-1166.0153" y2="2767.7549" gradientTransform="matrix(-1 0 0 1 -644.2802 0)">
					<stop  offset="0" style="stop-color:#FF928E"/>
					<stop  offset="1" style="stop-color:#FE7062"/>
				</linearGradient>
				<path style="fill:url(#SVGID_00000158002114786913404400000003964010409724158907_);" d="M2837.461,1908.436v-588.011
					c0-77.255-62.086-140.117-139.337-140.958c-231.851-2.525-710.03-2.651-1101.285,30.32
					c-53.389,4.499-94.919,48.26-96.854,101.803l-36.568,568.488c-2.718,75.194,56.732,138.015,131.962,139.444l1107.417,21.044
					C2776.752,2041.972,2837.461,1982.405,2837.461,1908.436z"/>
				<path style="fill:#FFFFFF;" d="M2703.176,1384.046c0.986,50.034-0.499,129.419-1.716,180.709
					c-0.634,26.682-24.06,47.018-50.571,43.911l-190.805-22.364c-25.418-2.978-43.326-26.405-39.532-51.716l23.42-156.24
					c3.325-22.18,22.379-38.59,44.808-38.59h169.097C2682.516,1339.757,2702.69,1359.41,2703.176,1384.046z"/>
				<path style="opacity:0.37;fill:#FFFFFF;" d="M2204.539,1680.142l-159.167,17.17c-22.271,2.405-41.275-15.964-39.634-38.305
					l34.796-473.47c66.722-2.116,132.535-3.659,196.039-4.743v463.67C2236.573,1662.793,2222.761,1678.176,2204.539,1680.142z"/>
				<path style="fill:#FFFFFF;" d="M2139.303,1598.079c-0.49,8.517-7.547,15.083-15.968,15.083c-0.314,0-0.627-0.011-0.939-0.032
					c-8.829-0.51-15.572-8.078-15.051-16.905l24-413.229c10.761-0.266,21.435-0.506,32.108-0.743L2139.303,1598.079z"/>
				<g>
					
						<linearGradient id="SVGID_00000173849266480888818760000016397701701412288648_" gradientUnits="userSpaceOnUse" x1="-3198.8201" y1="1369.0212" x2="-3540.3711" y2="1865.3368" gradientTransform="matrix(-1 0 0 1 -644.2802 0)">
						<stop  offset="0" style="stop-color:#09005D"/>
						<stop  offset="1" style="stop-color:#1A0F91"/>
					</linearGradient>
					<path style="fill:url(#SVGID_00000173849266480888818760000016397701701412288648_);" d="M2614.935,1533.195
						c2.794,0,5.149-2.167,5.328-5.004l8.254-130.154c0.188-2.94-2.043-5.473-4.992-5.661c-3.097-0.24-5.472,2.052-5.66,4.992
						l-8.256,130.157c-0.187,2.939,2.043,5.472,4.994,5.659C2614.716,1533.195,2614.831,1533.195,2614.935,1533.195z"/>
					
						<linearGradient id="SVGID_00000140013590427836294450000010797440477725398664_" gradientUnits="userSpaceOnUse" x1="-3186.5391" y1="1377.4729" x2="-3528.0903" y2="1873.7887" gradientTransform="matrix(-1 0 0 1 -644.2802 0)">
						<stop  offset="0" style="stop-color:#09005D"/>
						<stop  offset="1" style="stop-color:#1A0F91"/>
					</linearGradient>
					<path style="fill:url(#SVGID_00000140013590427836294450000010797440477725398664_);" d="M2597.946,1533.195
						c2.865,0,5.243-2.272,5.336-5.159l4.325-132.647c0.094-2.951-2.22-5.42-5.159-5.515c-3.399-0.166-5.41,2.221-5.514,5.16
						l-4.327,132.646c-0.094,2.949,2.221,5.42,5.16,5.514C2597.768,1533.195,2597.892,1533.195,2597.946,1533.195z"/>
					
						<linearGradient id="SVGID_00000127737469837220529250000001789219516007524027_" gradientUnits="userSpaceOnUse" x1="-3171.7209" y1="1387.6702" x2="-3513.2727" y2="1883.9868" gradientTransform="matrix(-1 0 0 1 -644.2802 0)">
						<stop  offset="0" style="stop-color:#09005D"/>
						<stop  offset="1" style="stop-color:#1A0F91"/>
					</linearGradient>
					<path style="fill:url(#SVGID_00000127737469837220529250000001789219516007524027_);" d="M2574.909,1533.185
						c-2.949-0.136-5.221-2.638-5.076-5.577c2.116-44.56,6.15-129.551,6.211-132.449c0.022-2.919,2.41-5.285,5.338-5.285
						c2.95,0,5.337,2.387,5.337,5.337c0,2.2-5.191,111.093-6.233,132.898c-0.135,2.866-2.491,5.086-5.326,5.086
						C2575.077,1533.195,2574.992,1533.195,2574.909,1533.185z M2575.94,1395.211h0.104H2575.94z"/>
					
						<linearGradient id="SVGID_00000005949846505816397390000015633015542284879017_" gradientUnits="userSpaceOnUse" x1="-3146.0898" y1="1405.309" x2="-3487.6409" y2="1901.6248" gradientTransform="matrix(-1 0 0 1 -644.2802 0)">
						<stop  offset="0" style="stop-color:#09005D"/>
						<stop  offset="1" style="stop-color:#1A0F91"/>
					</linearGradient>
					<path style="fill:url(#SVGID_00000005949846505816397390000015633015542284879017_);" d="M2539.585,1538.531
						c5.723,0,10.455-4.534,10.653-10.298c4.513-128.519,3.721-131.418,3.199-133.335c-1.543-5.702-7.462-9.048-13.102-7.495
						c-5.222,1.428-8.484,6.494-7.775,11.715c0.343,7.724-2.043,82.5-3.648,128.364c-0.209,5.888,4.398,10.84,10.288,11.038
						C2539.325,1538.531,2539.46,1538.531,2539.585,1538.531z"/>
					
						<linearGradient id="SVGID_00000148653572913117924590000011497546541377001623_" gradientUnits="userSpaceOnUse" x1="-3129.1897" y1="1416.9392" x2="-3470.7407" y2="1913.255" gradientTransform="matrix(-1 0 0 1 -644.2802 0)">
						<stop  offset="0" style="stop-color:#09005D"/>
						<stop  offset="1" style="stop-color:#1A0F91"/>
					</linearGradient>
					<path style="fill:url(#SVGID_00000148653572913117924590000011497546541377001623_);" d="M2516.455,1533.195
						c2.95,0,5.338-2.386,5.338-5.338v-130.154c0-2.95-2.387-5.338-5.338-5.338c-2.949,0-5.335,2.387-5.335,5.338v130.154
						C2511.12,1530.809,2513.506,1533.195,2516.455,1533.195z"/>
					
						<linearGradient id="SVGID_00000000938477276940671510000016276935897316677773_" gradientUnits="userSpaceOnUse" x1="-3118.6975" y1="1424.1604" x2="-3460.2468" y2="1920.4735" gradientTransform="matrix(-1 0 0 1 -644.2802 0)">
						<stop  offset="0" style="stop-color:#09005D"/>
						<stop  offset="1" style="stop-color:#1A0F91"/>
					</linearGradient>
					<path style="fill:url(#SVGID_00000000938477276940671510000016276935897316677773_);" d="M2497.777,1533.195
						c2.898,0,5.275-2.313,5.336-5.211c1.022-45.227,3.41-119.097,5.545-127.977c0.938-1.678,0.928-3.805-0.198-5.535
						c-1.615-2.48-4.92-3.148-7.39-1.531c-2.908,1.906-5.67,3.711-8.631,134.794c-0.062,2.95,2.272,5.389,5.212,5.462H2497.777z"/>
					
						<linearGradient id="SVGID_00000140715320451615444570000003506708330031760806_" gradientUnits="userSpaceOnUse" x1="-3216.394" y1="1356.928" x2="-3557.9456" y2="1853.2439" gradientTransform="matrix(-1 0 0 1 -644.2802 0)">
						<stop  offset="0" style="stop-color:#09005D"/>
						<stop  offset="1" style="stop-color:#1A0F91"/>
					</linearGradient>
					<path style="fill:url(#SVGID_00000140715320451615444570000003506708330031760806_);" d="M2643.651,1545.046
						c5.639,0,10.351-4.419,10.653-10.121l7.118-136.67c0.303-5.889-4.222-10.903-10.11-11.216
						c-5.587-0.395-10.903,4.223-11.215,10.111l-7.119,136.67c-0.303,5.89,4.22,10.902,10.11,11.215
						C2643.276,1545.046,2643.464,1545.046,2643.651,1545.046z"/>
				</g>
			</g>
		</g>
		<g>
			
				<linearGradient id="SVGID_00000100375236330587154410000007049766631818954676_" gradientUnits="userSpaceOnUse" x1="-265.8687" y1="2154.2288" x2="-296.0736" y2="1843.5516" gradientTransform="matrix(-1 0 0 1 836.346 0)">
				<stop  offset="0" style="stop-color:#FEBBBA"/>
				<stop  offset="1" style="stop-color:#FF928E"/>
			</linearGradient>
			<path style="fill:url(#SVGID_00000100375236330587154410000007049766631818954676_);" d="M968.661,1962.634
				c0,0,97.667,222.845,236.516,257.346c26.87,5.233,58.44,2.936,72.555,11.709c16.039,9.97-3.465,36.842-11.27,57.215
				c-7.802,20.37-10.834,10.836-14.302,4.334s11.126-27.018-7.946-35.108c-19.072-8.09-13.293,4.334-4.334,15.025
				c8.959,10.691,8.668,27.162,8.091,28.029c-0.577,0.867-15.027-6.357-28.608-12.714c-11.654-5.455-18.185-20.451-19.808-24.607
				c-27.494-3.204-199.566-30.265-272.716-211.217C926.838,2052.646,919.794,1872.998,968.661,1962.634z"/>
			
				<linearGradient id="SVGID_00000038411693493640981960000011411973823184640917_" gradientUnits="userSpaceOnUse" x1="317.3706" y1="3351.0732" x2="411.1107" y2="3351.0732" gradientTransform="matrix(-0.997 0.0777 0.0777 0.997 606.4072 -157.9383)">
				<stop  offset="0" style="stop-color:#09005D"/>
				<stop  offset="1" style="stop-color:#1A0F91"/>
			</linearGradient>
			<path style="fill:url(#SVGID_00000038411693493640981960000011411973823184640917_);" d="M548.509,3185.334l-1.908,44.116
				c-0.363,8.369-6.378,15.433-14.603,17.028c-13.884,2.693-36.238,6.086-58.416,5.476c-9.734-0.268-16.764-9.556-14.545-19.038
				c4.047-17.288,11.882-43.378,24.864-59.385l48.479-3.78C541.342,3169.053,548.897,3176.353,548.509,3185.334z"/>
			
				<linearGradient id="SVGID_00000014618756975089449360000011336444842127981996_" gradientUnits="userSpaceOnUse" x1="-78.7288" y1="3720.7251" x2="56.1731" y2="2144.0588" gradientTransform="matrix(-0.997 0.0777 0.0777 0.997 606.4072 -157.9383)">
				<stop  offset="0" style="stop-color:#FEBBBA"/>
				<stop  offset="1" style="stop-color:#FF928E"/>
			</linearGradient>
			<path style="fill:url(#SVGID_00000014618756975089449360000011336444842127981996_);" d="M888.293,2643.793l11.935,47.495
				c0,0-5.76,279.688-1.977,391.089c0.593,17.466,6.437,34.316,16.729,48.439l53.68,73.658l-126.664-62.013l-3.562-14.589
				l17.697-28.801l-50.209-308.903c-2.949-18.146-0.609-36.759,6.743-53.61l21.378-49.007L888.293,2643.793z"/>
			
				<linearGradient id="SVGID_00000018940355117349502820000007945466437343094436_" gradientUnits="userSpaceOnUse" x1="-118.1495" y1="3333.9456" x2="33.5352" y2="3333.9456" gradientTransform="matrix(-0.997 0.0777 0.0777 0.997 606.4072 -157.9383)">
				<stop  offset="0" style="stop-color:#09005D"/>
				<stop  offset="1" style="stop-color:#1A0F91"/>
			</linearGradient>
			<path style="fill:url(#SVGID_00000018940355117349502820000007945466437343094436_);" d="M977.508,3215.061l-38.643,3.013
				c-7.233,0.564-14.313-2.225-19.172-7.613c-13.268-14.714-40.608-43.308-52.605-43.174c-16.149,0.179-9.641,57.135-9.641,57.135
				l-9.005,0.702l-16.941-70.084c-4.262-17.633,3.24-36.017,18.622-45.634c0,0,5.79,26.874,26.641,37.335
				c20.85,10.46,85.327,48.719,85.327,48.719s7.404-1.652,15.739-0.807C990.194,3195.907,989.898,3214.095,977.508,3215.061z"/>
			
				<linearGradient id="SVGID_00000054955795931420945000000004231436032065689481_" gradientUnits="userSpaceOnUse" x1="192.6328" y1="3744.2095" x2="327.5726" y2="2167.1006" gradientTransform="matrix(-0.997 0.0777 0.0777 0.997 606.4072 -157.9383)">
				<stop  offset="0" style="stop-color:#FEBBBA"/>
				<stop  offset="1" style="stop-color:#FF928E"/>
			</linearGradient>
			<path style="fill:url(#SVGID_00000054955795931420945000000004231436032065689481_);" d="M724.219,2679.587
				c0,0-136.782,317.017-156.879,388.529c-20.096,71.511-24.513,130.206-24.427,135.725c0.134,8.624-9.898,17.687-39.32,19.981
				c-15.185,1.183-23.095-4.324-27.195-9.931c-3.499-4.783-4.15-11.061-1.945-16.562c7.82-19.516,32.605-81.869,41.395-109.958
				c10.495-33.537,27.031-183.104,38.407-235.544c11.376-52.441,24.418-109.38,87.366-165.8
				C641.619,2686.027,684.062,2637.437,724.219,2679.587z"/>
			
				<linearGradient id="SVGID_00000114036063298713490900000017332787487231355838_" gradientUnits="userSpaceOnUse" x1="969.5784" y1="1808.2108" x2="675.9988" y2="2251.9934">
				<stop  offset="0" style="stop-color:#4F52FF"/>
				<stop  offset="1" style="stop-color:#4042E2"/>
			</linearGradient>
			<path style="fill:url(#SVGID_00000114036063298713490900000017332787487231355838_);" d="M786.723,2172.74
				c27.727-178.692-84.911-269.753-84.911-269.753c33.652-37.751,84.55-66.328,123.577-84.412
				c35.254-16.336,76.892-10.51,106.294,14.892c32.349,27.948,67.542,67.529,62.825,104.583
				c-4.991,39.22-62.861,237.485-62.861,237.485S866.737,2212.687,786.723,2172.74z"/>
			
				<linearGradient id="SVGID_00000043438541751678727090000002628372976239819658_" gradientUnits="userSpaceOnUse" x1="1113.2805" y1="2094.6833" x2="587.5683" y2="2729.6343">
				<stop  offset="0" style="stop-color:#09005D"/>
				<stop  offset="1" style="stop-color:#1A0F91"/>
			</linearGradient>
			<path style="fill:url(#SVGID_00000043438541751678727090000002628372976239819658_);" d="M701.687,2266.765
				c12.894-52.081,85.035-94.025,85.035-94.025c80.014,39.947,144.924,2.795,144.924,2.795s19.619,56.594,13.373,111.097
				c-6.245,54.504-44.791,404.656-44.791,404.656c-101.499,28.937-263.375-0.615-263.375-0.615
				C693.448,2568.926,688.795,2318.846,701.687,2266.765z"/>
			
				<linearGradient id="SVGID_00000157991049753151144700000004191363257758440849_" gradientUnits="userSpaceOnUse" x1="698.7031" y1="2061.8467" x2="846.6306" y2="1795.5769">
				<stop  offset="0" style="stop-color:#FEBBBA"/>
				<stop  offset="1" style="stop-color:#FF928E"/>
			</linearGradient>
			<path style="fill:url(#SVGID_00000157991049753151144700000004191363257758440849_);" d="M831.347,1708.149l-21.875,153.845
				c-2.185,13.571,9.787,10.445,23.057,6.855c21.729-5.877,49.485-16.656,57.649-34.558c0.831-1.822,1.16-3.834,1.279-5.833
				l6.287-105.988c0.499-8.409-4.628-16.132-12.57-18.938l-28.876-10.199C845.181,1689.407,833.221,1696.508,831.347,1708.149z"/>
			
				<linearGradient id="SVGID_00000136400333305400244770000015395434223122975139_" gradientUnits="userSpaceOnUse" x1="120.9003" y1="2399.0969" x2="69.5534" y2="1870.9609" gradientTransform="matrix(-0.997 0.0777 0.0777 0.997 606.4072 -157.9383)">
				<stop  offset="0" style="stop-color:#FEBBBA"/>
				<stop  offset="1" style="stop-color:#FF928E"/>
			</linearGradient>
			<path style="fill:url(#SVGID_00000136400333305400244770000015395434223122975139_);" d="M756.963,1972.579
				c-5.654,7.497-91.339,109.434-115.877,223.186c-24.538,113.752-20.235,176.148-20.235,176.148s25.877,37.555,19.913,52.344
				c-5.69,14.11-12.44,40.113-23.896,42.672c-11.457,2.558-19.818-18.795-18.084-41.409c1.733-22.615-14.849-31.97-10.364-45.641
				c4.463-13.606-27.31-375.509,111.286-475.498c0.682-0.492,1.4-0.935,2.106-1.392
				C764.29,1925.56,766.054,1960.527,756.963,1972.579z"/>
			<g>
				
					<linearGradient id="SVGID_00000093164438420022676650000010275493422494886293_" gradientUnits="userSpaceOnUse" x1="-190.0585" y1="2459.7026" x2="26.9303" y2="2607.0911" gradientTransform="matrix(-0.991 0.1338 0.1338 0.991 416.2013 -782.9296)">
					<stop  offset="0" style="stop-color:#FEBBBA"/>
					<stop  offset="1" style="stop-color:#FF928E"/>
				</linearGradient>
				<path style="fill:url(#SVGID_00000093164438420022676650000010275493422494886293_);" d="M855.556,1586.12
					c0,0,46.805,12.721,85.552,72.644c38.747,59.924,20.25,92.504-7.445,100.372c-27.695,7.869-70.015,12.952-120.271-22.353
					C763.136,1701.478,795,1571.726,855.556,1586.12z"/>
				
					<linearGradient id="SVGID_00000129892203435041882350000009763970585826397860_" gradientUnits="userSpaceOnUse" x1="188.6268" y1="2182.8201" x2="-175.3141" y2="2561.4653" gradientTransform="matrix(-0.991 0.1338 0.1338 0.991 416.2013 -782.9296)">
					<stop  offset="0" style="stop-color:#09005D"/>
					<stop  offset="1" style="stop-color:#1A0F91"/>
				</linearGradient>
				<path style="fill:url(#SVGID_00000129892203435041882350000009763970585826397860_);" d="M838.811,1698.567
					c0,0-46.045-89.107,36.805-101.418l21.373,11.015c0,0,23.447-56.015-29.882-74.045c-53.328-18.03-124.934,14.099-137.115,84.312
					c-12.181,70.212,6.14,112.016,45.877,139.458c39.738,27.442,49.391-11.059,49.391-11.059s-23.339-27.534-17.67-44.715
					c5.669-17.182,26.39-0.167,26.39-0.167L838.811,1698.567z"/>
				
					<linearGradient id="SVGID_00000039107911080748842210000014146451398873695619_" gradientUnits="userSpaceOnUse" x1="-177.0513" y1="2440.5532" x2="39.9361" y2="2587.9407" gradientTransform="matrix(-0.991 0.1338 0.1338 0.991 416.2013 -782.9296)">
					<stop  offset="0" style="stop-color:#FEBBBA"/>
					<stop  offset="1" style="stop-color:#FF928E"/>
				</linearGradient>
				<path style="fill:url(#SVGID_00000039107911080748842210000014146451398873695619_);" d="M830.911,1710.251
					c0,0-23.401-45.944-43.343-23.698c-19.942,22.247,24.327,42.074,41.427,48.123L830.911,1710.251z"/>
				
					<linearGradient id="SVGID_00000003827805396458164290000013047913807169521071_" gradientUnits="userSpaceOnUse" x1="343.7293" y1="2331.8931" x2="-20.2097" y2="2710.5364" gradientTransform="matrix(-0.991 0.1338 0.1338 0.991 416.2013 -782.9296)">
					<stop  offset="0" style="stop-color:#09005D"/>
					<stop  offset="1" style="stop-color:#1A0F91"/>
				</linearGradient>
				<path style="fill:url(#SVGID_00000003827805396458164290000013047913807169521071_);" d="M769.775,1604.741
					c0,0-160.901-49.502-187.386,118.328c-26.484,167.83-44.778,221.63-84.673,192.691c0,0,6.57,62.701,83.171,34.677
					C779.719,1877.693,658.705,1644.774,769.775,1604.741z"/>
			</g>
		</g>
		<g>
			<circle style="fill:#FFFFFF;" cx="1351.039" cy="1274.634" r="371.317"/>
			<g>
				
					<linearGradient id="SVGID_00000003070482190890376400000014061293132188902807_" gradientUnits="userSpaceOnUse" x1="1275.6456" y1="504.2414" x2="1321.7316" y2="900.5805">
					<stop  offset="0" style="stop-color:#FF928E"/>
					<stop  offset="1" style="stop-color:#FE7062"/>
				</linearGradient>
				<path style="fill:url(#SVGID_00000003070482190890376400000014061293132188902807_);" d="M1337.19,1508.027
					c-17.489,1.144-33.76-6.992-42.812-21.528L1142.34,1242.36c-14.249-22.878-6.572-54.215,17.139-69.988
					c23.691-15.763,54.438-10.005,68.668,12.864l105.44,169.471l139.126-283.35c12.485-25.429,42.484-37.094,66.984-26.065
					c24.497,11.025,34.244,40.56,21.775,65.973l-179.79,366.465c-8.233,16.779-24.6,28.326-42.737,30.15
					C1338.361,1507.939,1337.776,1507.989,1337.19,1508.027z"/>
			</g>
		</g>
		<g>
			<g>
				
					<linearGradient id="SVGID_00000156581049259352836650000000114561582961996967_" gradientUnits="userSpaceOnUse" x1="-384.2953" y1="1180.0327" x2="-1522.8053" y2="2636.6565" gradientTransform="matrix(-1 0 0 1 993.5204 0)">
					<stop  offset="0" style="stop-color:#A22B25"/>
					<stop  offset="1" style="stop-color:#C0423C"/>
				</linearGradient>
				<path style="fill:url(#SVGID_00000156581049259352836650000000114561582961996967_);" d="M1474.641,1741.656l46.305,24.918
					c55.535,33.812,105.229,51.678,149.949,58.387c139.634,20.951,230.644-67.154,298.46-120.599
					c89.536-70.562,159.213-36.234,159.213-36.234l-95.486,182.237c-142.596,134.448-288.8,104.59-380.972,61.022
					c-58.674-27.733-95.46-61.022-95.46-61.022C1451.752,1787.817,1474.641,1741.656,1474.641,1741.656z"/>
				
					<linearGradient id="SVGID_00000165921789543115426690000000607355314184629636_" gradientUnits="userSpaceOnUse" x1="-253.4309" y1="1560.6691" x2="-894.6767" y2="2381.0869" gradientTransform="matrix(-1 0 0 1 993.5204 0)">
					<stop  offset="0" style="stop-color:#A22B25"/>
					<stop  offset="1" style="stop-color:#C0423C"/>
				</linearGradient>
				<path style="fill:url(#SVGID_00000165921789543115426690000000607355314184629636_);" d="M1338.226,1806.909
					c2.989-9.938,10.336-17.977,19.966-21.849l93.976-37.791c0,0,1.418-12.053-19.856-20.243
					c-21.276-8.19-16.302-32.017-16.302-32.017s29.065,13.259,71.616,34.288c24.334,12.026,37.987,33.259,45.228,49.242
					l-24.192,31.815c-57.92,17.4-116.528,20.727-175.636,13.825L1338.226,1806.909z"/>
			</g>
			
				<linearGradient id="SVGID_00000094585390818409128260000017573256720160689576_" gradientUnits="userSpaceOnUse" x1="2000.9912" y1="3049.0415" x2="2043.0715" y2="3253.7053" gradientTransform="matrix(1 0 0 1 2.9539 0)">
				<stop  offset="0" style="stop-color:#4F52FF"/>
				<stop  offset="1" style="stop-color:#4042E2"/>
			</linearGradient>
			<path style="fill:url(#SVGID_00000094585390818409128260000017573256720160689576_);" d="M2149.09,3135.102
				c0,0,7.153,40.497,10.661,80.584c1.371,15.668-10.708,29.271-26.422,29.926c-53.385,2.224-167.579,6.546-208.555,4.719
				c-6.16-0.275-10.187-6.581-7.907-12.311l0,0c1.91-4.8,5.595-8.682,10.289-10.839l188.628-86.693L2149.09,3135.102z"/>
			
				<linearGradient id="SVGID_00000067919795766200792830000010010895665127669930_" gradientUnits="userSpaceOnUse" x1="1864.3793" y1="3134.9353" x2="1925.7336" y2="3134.9353" gradientTransform="matrix(-1 0 0 1 4019.3296 0)">
				<stop  offset="0" style="stop-color:#FEBBBA"/>
				<stop  offset="1" style="stop-color:#FF928E"/>
			</linearGradient>
			<path style="fill:url(#SVGID_00000067919795766200792830000010010895665127669930_);" d="M2154.95,3111.307l-5.748,48.441
				c0,0-33.042,15.382-55.607-1.939l13.684-53.981L2154.95,3111.307z"/>
			
				<linearGradient id="SVGID_00000125589359063910554690000009454266038259076510_" gradientUnits="userSpaceOnUse" x1="1582.5909" y1="1504.2782" x2="1888.7136" y2="2834.8494" gradientTransform="matrix(-1 0 0 1 4019.3296 0)">
				<stop  offset="0" style="stop-color:#09005D"/>
				<stop  offset="1" style="stop-color:#1A0F91"/>
			</linearGradient>
			<path style="fill:url(#SVGID_00000125589359063910554690000009454266038259076510_);" d="M2164.175,2168.682
				c2.483,13.115-4.454,686.997-70.58,974.422c-1.079,4.691-7.917,13.896-5.558,17.932c5.738,9.815,47.992,7.06,71.819,7.89
				c7.379,0.258,11.342-8.404,13.424-15.747c18.902-66.687,109.474-400.809,121.29-719.986c13.201-356.648,0-12.144,0-12.144
				l5.867-225.951L2164.175,2168.682z"/>
			
				<linearGradient id="SVGID_00000152974193279210357020000005038856176111900089_" gradientUnits="userSpaceOnUse" x1="2338.3257" y1="3059.7014" x2="2336.4128" y2="3262.4534" gradientTransform="matrix(1 0 0 1 2.9539 0)">
				<stop  offset="0" style="stop-color:#4F52FF"/>
				<stop  offset="1" style="stop-color:#4042E2"/>
			</linearGradient>
			<path style="fill:url(#SVGID_00000152974193279210357020000005038856176111900089_);" d="M2366.073,3156.229
				c0,0,11.387,20.445,22.41,74.771c1.992,9.81-4.863,19.201-14.827,20.181c-17.627,1.732-44.765,3.962-66.503,3.812
				c-10.021-0.069-17.842-8.795-16.634-18.744c2.407-19.828,9.909-52.362,33.083-77.719L2366.073,3156.229z"/>
			
				<linearGradient id="SVGID_00000093863390123843390420000005708008924855647142_" gradientUnits="userSpaceOnUse" x1="1643.2548" y1="3131.7888" x2="1696.2297" y2="3131.7888" gradientTransform="matrix(-1 0 0 1 4019.3296 0)">
				<stop  offset="0" style="stop-color:#FEBBBA"/>
				<stop  offset="1" style="stop-color:#FF928E"/>
			</linearGradient>
			<path style="fill:url(#SVGID_00000093863390123843390420000005708008924855647142_);" d="M2376.075,3093.924l-13.43,73.254
				c0,0-13.277,9.876-39.545,2.717l6.41-78.817L2376.075,3093.924z"/>
			
				<linearGradient id="SVGID_00000070105361285193921480000000865573325960661388_" gradientUnits="userSpaceOnUse" x1="1480.7915" y1="1503.9984" x2="1790.8564" y2="2851.7041" gradientTransform="matrix(-1 0 0 1 4019.3296 0)">
				<stop  offset="0" style="stop-color:#09005D"/>
				<stop  offset="1" style="stop-color:#1A0F91"/>
			</linearGradient>
			<path style="fill:url(#SVGID_00000070105361285193921480000000865573325960661388_);" d="M2408.355,2194.965
				c54.08,340.679-7.732,868.151-29.927,966.275c-1.359,6.007-6.004,10.609-11.837,11.619c-9.908,1.714-26.219,3.113-42.3-1.761
				c-5.541-1.68-9.433-6.897-9.659-12.914c-2.978-79.33,2.382-566.341-48.01-758.81c-2.553-9.753-8.261-18.259-16.156-24.118
				l-82.926-67.585l-1.542-145.727L2408.355,2194.965z"/>
			
				<linearGradient id="SVGID_00000173843766126987626570000012932502685085720198_" gradientUnits="userSpaceOnUse" x1="-379.136" y1="975.0712" x2="-1110.5074" y2="1756.495" gradientTransform="matrix(-1 0 0 1 993.5204 0)">
				<stop  offset="0" style="stop-color:#4F52FF"/>
				<stop  offset="1" style="stop-color:#4042E2"/>
			</linearGradient>
			<path style="fill:url(#SVGID_00000173843766126987626570000012932502685085720198_);" d="M2098.484,1648.411
				c142.535-2.354,299.805,37.426,299.805,37.426c35.022,204.351,20.959,430.825,13.67,505.406
				c-1.494,15.289,6.684,31.476-8.481,33.926c-74.578,12.048-191.803-0.212-228.229-10.795
				c-13.313-3.867-11.05-18.042-13.879-31.613c-24.455-117.297-94.387-376.005-94.387-376.005
				c-33.902,43.609-81.734,104.632-152.449,120.875c36.037-41.773-33.085-129.375-25.706-160.794
				C1952.759,1695.008,2054.522,1649.139,2098.484,1648.411z"/>
			
				<linearGradient id="SVGID_00000159466661054935642160000000115094982561886874_" gradientUnits="userSpaceOnUse" x1="2205.4363" y1="1764.0524" x2="2229.3325" y2="1484.1282">
				<stop  offset="0" style="stop-color:#A22B25"/>
				<stop  offset="1" style="stop-color:#C0423C"/>
			</linearGradient>
			<path style="fill:url(#SVGID_00000159466661054935642160000000115094982561886874_);" d="M2242.86,1532.696l45.352,131.156
				c0.752,2.173-0.142,4.579-2.153,5.691c-12.363,6.835-56.903,26.592-110.578-7.438c-5.591-3.545-9.397-9.326-10.247-15.892
				l-14.686-113.516H2242.86z"/>
			<g>
				
					<linearGradient id="SVGID_00000060020295201022680620000004903919552165940892_" gradientUnits="userSpaceOnUse" x1="-3952.4636" y1="-414.7942" x2="-4004.0061" y2="-584.7932" gradientTransform="matrix(-0.746 -0.6659 -0.6659 0.746 -1107.0059 -803.1727)">
					<stop  offset="0" style="stop-color:#A22B25"/>
					<stop  offset="1" style="stop-color:#C0423C"/>
				</linearGradient>
				<path style="fill:url(#SVGID_00000060020295201022680620000004903919552165940892_);" d="M2144.181,1411.242
					c0,0-49.802,93.746-43.419,131.615c6.384,37.869,68.105,35.15,122.002,4.394l37.663-101.225L2144.181,1411.242z"/>
				
					<linearGradient id="SVGID_00000042726499369876982910000010259574782775721882_" gradientUnits="userSpaceOnUse" x1="-4011.0381" y1="-669.745" x2="-3974.7959" y2="-463.0313" gradientTransform="matrix(-0.746 -0.6659 -0.6659 0.746 -1107.0059 -803.1727)">
					<stop  offset="0" style="stop-color:#09005D"/>
					<stop  offset="1" style="stop-color:#1A0F91"/>
				</linearGradient>
				<path style="fill:url(#SVGID_00000042726499369876982910000010259574782775721882_);" d="M2220.382,1497.54
					c-2.191-0.971-2.999-3.651-1.686-5.656c3.99-6.095,11.469-18.53,13.856-29.417c0,0,8.952-5.734-22.788-13.331
					c-17.282-4.137-47.92-7.559-61.385-19.984c-15.069-13.905,12.713-40.175,24.395-47.228
					c15.416-9.308,34.186-14.814,51.572-10.123c8.39,2.263,15.982,6.748,23.456,11.182c12.728,7.551,25.904,15.522,33.998,27.912
					c5.24,8.022,7.985,17.38,10.5,26.625c3.613,13.283,6.918,26.887,6.291,40.638c-1.671,36.636-44.606,69.458-79.135,73.469
					c-2.824,0.328-5.013-2.461-4.088-5.149l14.114-41.027c0.655-1.906-0.256-3.996-2.098-4.812L2220.382,1497.54z"/>
				
					<linearGradient id="SVGID_00000003815290060038232740000015125134569043393441_" gradientUnits="userSpaceOnUse" x1="-4005.1526" y1="-415.586" x2="-4051.5259" y2="-568.5362" gradientTransform="matrix(-0.746 -0.6659 -0.6659 0.746 -1107.0059 -803.1727)">
					<stop  offset="0" style="stop-color:#A22B25"/>
					<stop  offset="1" style="stop-color:#C0423C"/>
				</linearGradient>
				<path style="fill:url(#SVGID_00000003815290060038232740000015125134569043393441_);" d="M2214.709,1503.363
					c0,0,35.459-24.328,38.05-3.84c2.591,20.487-31.931,29.675-49.03,22.037L2214.709,1503.363z"/>
			</g>
			<g>
				
					<linearGradient id="SVGID_00000116200423260179430600000016612354154923567802_" gradientUnits="userSpaceOnUse" x1="3333.9995" y1="843.6257" x2="3844.4236" y2="980.1805" gradientTransform="matrix(1 0 0 1 -3185.4531 0)">
					<stop  offset="0" style="stop-color:#4F52FF"/>
					<stop  offset="1" style="stop-color:#4042E2"/>
				</linearGradient>
				<path style="fill:url(#SVGID_00000116200423260179430600000016612354154923567802_);" d="M2126.038,1388.248
					c72.756-137.427,261.327-12.58,173.567,103.189C2234.355,1448.052,2160.624,1383.557,2126.038,1388.248z"/>
			</g>
			
				<linearGradient id="SVGID_00000021800322587528244690000013710483675688448411_" gradientUnits="userSpaceOnUse" x1="-2296.5503" y1="903.4418" x2="-1826.5153" y2="1029.1913" gradientTransform="matrix(-1 0 0 1 1774.1759 0)">
				<stop  offset="0" style="stop-color:#4F52FF"/>
				<stop  offset="1" style="stop-color:#4042E2"/>
			</linearGradient>
			<path style="fill:url(#SVGID_00000021800322587528244690000013710483675688448411_);" d="M2239.679,1446.463l-130.646-4.041
				c-3.318-0.103-6.348-1.939-7.957-4.843c-11.704-21.134-28.829-34.599-50.243-41.994c-2.709-0.936-2.148-4.931,0.711-5.125
				l80.096-5.448c0.089-0.006,0.179-0.006,0.268,0.001c39.918,3.069,75.256,27.086,108.965,58.55
				C2241.998,1444.613,2241.216,1446.511,2239.679,1446.463z"/>
			
				<linearGradient id="SVGID_00000087407463405369349530000016799433804762929842_" gradientUnits="userSpaceOnUse" x1="-426.4137" y1="743.7307" x2="-1219.4769" y2="1591.0684" gradientTransform="matrix(-1 0 0 1 993.5204 0)">
				<stop  offset="0" style="stop-color:#4F52FF"/>
				<stop  offset="1" style="stop-color:#4042E2"/>
			</linearGradient>
			<path style="fill:url(#SVGID_00000087407463405369349530000016799433804762929842_);" d="M2382.147,1893.865
				c-79.774-89.561-71.693-158.508,18.347-208.141c0,0,149.249,101.408,173.793,229.982c-28.2,2.078-79.516,9.412-129.744,34.774
				C2433.505,1889.77,2382.147,1893.865,2382.147,1893.865z"/>
			
				<linearGradient id="SVGID_00000118361718498913491780000008130820547369324217_" gradientUnits="userSpaceOnUse" x1="3514.7458" y1="2015.5343" x2="3905.8311" y2="2015.5343" gradientTransform="matrix(-1 0 0 1 6092.4355 0)">
				<stop  offset="0" style="stop-color:#A22B25"/>
				<stop  offset="1" style="stop-color:#C0423C"/>
			</linearGradient>
			<path style="fill:url(#SVGID_00000118361718498913491780000008130820547369324217_);" d="M2208.78,1986.03
				c0,0,167.568,94.702,224.109,13.838c11.74-16.79,14.545-33.478,11.655-49.387c50.228-25.362,101.544-32.696,129.744-34.774
				c7.401,38.76,3.488,79.985-19.289,121.652c-99.039,181.171-368.394-10.013-368.394-10.013L2208.78,1986.03z"/>
			<g>
				
					<linearGradient id="SVGID_00000158731735624941489240000008740348902917107075_" gradientUnits="userSpaceOnUse" x1="1875.923" y1="1762.2836" x2="2288.9832" y2="2165.1021">
					<stop  offset="0" style="stop-color:#09005D"/>
					<stop  offset="1" style="stop-color:#1A0F91"/>
				</linearGradient>
				<path style="fill:url(#SVGID_00000158731735624941489240000008740348902917107075_);" d="M2228.913,2105.838l-91.452-319.374
					c-1.039-3.626-4.131-6.27-7.877-6.706c-16.569-1.932-64.582-7.36-120.018-12.049c-66.773-5.648-144.317-10.224-190.655-6.331
					c-6.587,0.553-10.568,7.521-7.638,13.448c26.35,53.31,134.739,270.163,189.017,341.202c1.798,2.353,4.579,3.73,7.541,3.702
					l212.185-1.974C2226.191,2117.698,2230.613,2111.773,2228.913,2105.838z"/>
				<path style="fill:#91B3FA;" d="M2000.081,1740.02l-66.306-11.048c-3.531-0.588-6.423,2.786-5.301,6.186l6.563,19.889
					c0.571,1.731,2.082,2.984,3.889,3.225l63.805,8.523c3.301,0.441,6.022-2.558,5.264-5.801l-4.064-17.365
					C2003.495,1741.759,2001.975,1740.334,2000.081,1740.02z"/>
				<path style="fill:#91B3FA;" d="M2049.728,1796.152l-5.463-28.452c-0.548-2.853-2.903-5.01-5.794-5.303l-133.921-13.589
					c-4.508-0.458-8.117,3.673-7.059,8.078l8.515,35.455c0.681,2.837,3.151,4.886,6.064,5.032l130.869,6.588
					C2047.198,1804.175,2050.532,1800.341,2049.728,1796.152z"/>
				
					<linearGradient id="SVGID_00000087395924712747382270000015389824382699919279_" gradientUnits="userSpaceOnUse" x1="3876.7949" y1="1974.5294" x2="3998.6345" y2="1974.5294" gradientTransform="matrix(-1 0 0 1 6092.4355 0)">
					<stop  offset="0" style="stop-color:#A22B25"/>
					<stop  offset="1" style="stop-color:#C0423C"/>
				</linearGradient>
				<path style="fill:url(#SVGID_00000087395924712747382270000015389824382699919279_);" d="M2206.818,2028.677
					c0,0,12.74-52.384,7.601-70.969c-5.139-18.585-15.095-42.479-48.283-37.169c-33.187,5.31-72.335,19.29-72.335,19.29
					s1.978,24.208,27.201,16.398l-15.64,12.102c0,0,2.235,19.383,23.539,9.028l-14.546,16.051c0,0,9.149,15.918,24.824,5.709
					C2154.852,1988.904,2162.366,2034.985,2206.818,2028.677z"/>
			</g>
			<g>
				
					<linearGradient id="SVGID_00000181081162706392180100000000741821188735102881_" gradientUnits="userSpaceOnUse" x1="2324.4072" y1="1844.4774" x2="2488.2656" y2="1540.656">
					<stop  offset="0" style="stop-color:#4F52FF"/>
					<stop  offset="1" style="stop-color:#4042E2"/>
				</linearGradient>
				<path style="fill:url(#SVGID_00000181081162706392180100000000741821188735102881_);" d="M2259.922,1829.264
					c10.461,0.841,98.932,3.678,98.932,3.678l-3.571,89.067l-45.832,25.849l-49.529-25.849V1829.264z"/>
				
					<linearGradient id="SVGID_00000120542048558176975810000005025166981240192409_" gradientUnits="userSpaceOnUse" x1="2305.5061" y1="1852.1932" x2="2479.6052" y2="1565.4414">
					<stop  offset="0" style="stop-color:#4F52FF"/>
					<stop  offset="1" style="stop-color:#4042E2"/>
				</linearGradient>
				<polygon style="fill:url(#SVGID_00000120542048558176975810000005025166981240192409_);" points="2252.896,1829.264 
					2358.655,1832.942 2362.979,1867.113 2307.938,1881.412 2249.432,1855.338 				"/>
			</g>
		</g>
	</g>
</g>
</svg>
